<mxfile host="app.diagrams.net" agent="Mozilla/5.0 (Windows NT 10.0; Win64; x64) AppleWebKit/537.36 (KHTML, like Gecko) Chrome/135.0.0.0 Safari/537.36" version="26.2.12">
  <diagram name="Page-1" id="Epct77MK2-cVWQSA5Vpx">
    <mxGraphModel dx="1963" dy="1160" grid="1" gridSize="10" guides="1" tooltips="1" connect="1" arrows="1" fold="1" page="1" pageScale="1" pageWidth="2339" pageHeight="3300" math="0" shadow="0">
      <root>
        <mxCell id="0" />
        <mxCell id="1" parent="0" />
        <mxCell id="x6IBYftdq4sRMW-oSaji-15" value="book" style="swimlane;fontStyle=0;childLayout=stackLayout;horizontal=1;startSize=26;horizontalStack=0;resizeParent=1;resizeParentMax=0;resizeLast=0;collapsible=1;marginBottom=0;align=center;fontSize=14;" vertex="1" parent="1">
          <mxGeometry x="40" y="40" width="240" height="266" as="geometry" />
        </mxCell>
        <mxCell id="x6IBYftdq4sRMW-oSaji-16" value="book_id INT PK" style="text;strokeColor=none;fillColor=none;spacingLeft=4;spacingRight=4;overflow=hidden;rotatable=0;points=[[0,0.5],[1,0.5]];portConstraint=eastwest;fontSize=12;whiteSpace=wrap;html=1;" vertex="1" parent="x6IBYftdq4sRMW-oSaji-15">
          <mxGeometry y="26" width="240" height="30" as="geometry" />
        </mxCell>
        <mxCell id="x6IBYftdq4sRMW-oSaji-17" value="title VARCHAR(255) NOT NULL" style="text;strokeColor=none;fillColor=none;spacingLeft=4;spacingRight=4;overflow=hidden;rotatable=0;points=[[0,0.5],[1,0.5]];portConstraint=eastwest;fontSize=12;whiteSpace=wrap;html=1;" vertex="1" parent="x6IBYftdq4sRMW-oSaji-15">
          <mxGeometry y="56" width="240" height="30" as="geometry" />
        </mxCell>
        <mxCell id="x6IBYftdq4sRMW-oSaji-18" value="isbn VARCHAR(20), NOT NULL&lt;div&gt;&lt;br&gt;&lt;/div&gt;" style="text;strokeColor=none;fillColor=none;spacingLeft=4;spacingRight=4;overflow=hidden;rotatable=0;points=[[0,0.5],[1,0.5]];portConstraint=eastwest;fontSize=12;whiteSpace=wrap;html=1;" vertex="1" parent="x6IBYftdq4sRMW-oSaji-15">
          <mxGeometry y="86" width="240" height="30" as="geometry" />
        </mxCell>
        <mxCell id="x6IBYftdq4sRMW-oSaji-19" value="publication_date DATE" style="text;strokeColor=none;fillColor=none;spacingLeft=4;spacingRight=4;overflow=hidden;rotatable=0;points=[[0,0.5],[1,0.5]];portConstraint=eastwest;fontSize=12;whiteSpace=wrap;html=1;" vertex="1" parent="x6IBYftdq4sRMW-oSaji-15">
          <mxGeometry y="116" width="240" height="30" as="geometry" />
        </mxCell>
        <mxCell id="x6IBYftdq4sRMW-oSaji-95" value="price DECIMAL(10,2), NOT NULL" style="text;strokeColor=none;fillColor=none;spacingLeft=4;spacingRight=4;overflow=hidden;rotatable=0;points=[[0,0.5],[1,0.5]];portConstraint=eastwest;fontSize=12;whiteSpace=wrap;html=1;" vertex="1" parent="x6IBYftdq4sRMW-oSaji-15">
          <mxGeometry y="146" width="240" height="30" as="geometry" />
        </mxCell>
        <mxCell id="x6IBYftdq4sRMW-oSaji-96" value="description TEXT" style="text;strokeColor=none;fillColor=none;spacingLeft=4;spacingRight=4;overflow=hidden;rotatable=0;points=[[0,0.5],[1,0.5]];portConstraint=eastwest;fontSize=12;whiteSpace=wrap;html=1;" vertex="1" parent="x6IBYftdq4sRMW-oSaji-15">
          <mxGeometry y="176" width="240" height="30" as="geometry" />
        </mxCell>
        <mxCell id="x6IBYftdq4sRMW-oSaji-23" value="publisher_id INT FK" style="text;strokeColor=none;fillColor=none;spacingLeft=4;spacingRight=4;overflow=hidden;rotatable=0;points=[[0,0.5],[1,0.5]];portConstraint=eastwest;fontSize=12;whiteSpace=wrap;html=1;" vertex="1" parent="x6IBYftdq4sRMW-oSaji-15">
          <mxGeometry y="206" width="240" height="30" as="geometry" />
        </mxCell>
        <mxCell id="x6IBYftdq4sRMW-oSaji-21" value="language_id INT FK" style="text;strokeColor=none;fillColor=none;spacingLeft=4;spacingRight=4;overflow=hidden;rotatable=0;points=[[0,0.5],[1,0.5]];portConstraint=eastwest;fontSize=12;whiteSpace=wrap;html=1;" vertex="1" parent="x6IBYftdq4sRMW-oSaji-15">
          <mxGeometry y="236" width="240" height="30" as="geometry" />
        </mxCell>
        <mxCell id="x6IBYftdq4sRMW-oSaji-24" value="author" style="swimlane;fontStyle=0;childLayout=stackLayout;horizontal=1;startSize=26;horizontalStack=0;resizeParent=1;resizeParentMax=0;resizeLast=0;collapsible=1;marginBottom=0;align=center;fontSize=14;" vertex="1" parent="1">
          <mxGeometry x="40" y="440" width="240" height="150" as="geometry" />
        </mxCell>
        <mxCell id="x6IBYftdq4sRMW-oSaji-25" value="author_id INT PK" style="text;strokeColor=none;fillColor=none;spacingLeft=4;spacingRight=4;overflow=hidden;rotatable=0;points=[[0,0.5],[1,0.5]];portConstraint=eastwest;fontSize=12;whiteSpace=wrap;html=1;" vertex="1" parent="x6IBYftdq4sRMW-oSaji-24">
          <mxGeometry y="26" width="240" height="30" as="geometry" />
        </mxCell>
        <mxCell id="x6IBYftdq4sRMW-oSaji-26" value="author_name VARCHAR(255), NOT NULL" style="text;strokeColor=none;fillColor=none;spacingLeft=4;spacingRight=4;overflow=hidden;rotatable=0;points=[[0,0.5],[1,0.5]];portConstraint=eastwest;fontSize=12;whiteSpace=wrap;html=1;" vertex="1" parent="x6IBYftdq4sRMW-oSaji-24">
          <mxGeometry y="56" width="240" height="34" as="geometry" />
        </mxCell>
        <mxCell id="x6IBYftdq4sRMW-oSaji-27" value="author_email VARCHAR(100)" style="text;strokeColor=none;fillColor=none;spacingLeft=4;spacingRight=4;overflow=hidden;rotatable=0;points=[[0,0.5],[1,0.5]];portConstraint=eastwest;fontSize=12;whiteSpace=wrap;html=1;" vertex="1" parent="x6IBYftdq4sRMW-oSaji-24">
          <mxGeometry y="90" width="240" height="30" as="geometry" />
        </mxCell>
        <mxCell id="x6IBYftdq4sRMW-oSaji-94" value="author_bio TEXT" style="text;strokeColor=none;fillColor=none;spacingLeft=4;spacingRight=4;overflow=hidden;rotatable=0;points=[[0,0.5],[1,0.5]];portConstraint=eastwest;fontSize=12;whiteSpace=wrap;html=1;" vertex="1" parent="x6IBYftdq4sRMW-oSaji-24">
          <mxGeometry y="120" width="240" height="30" as="geometry" />
        </mxCell>
        <mxCell id="x6IBYftdq4sRMW-oSaji-28" value="customer" style="swimlane;fontStyle=0;childLayout=stackLayout;horizontal=1;startSize=26;horizontalStack=0;resizeParent=1;resizeParentMax=0;resizeLast=0;collapsible=1;marginBottom=0;align=center;fontSize=14;" vertex="1" parent="1">
          <mxGeometry x="40" y="720" width="240" height="220" as="geometry" />
        </mxCell>
        <mxCell id="x6IBYftdq4sRMW-oSaji-29" value="customer_id INT PK" style="text;strokeColor=none;fillColor=none;spacingLeft=4;spacingRight=4;overflow=hidden;rotatable=0;points=[[0,0.5],[1,0.5]];portConstraint=eastwest;fontSize=12;whiteSpace=wrap;html=1;" vertex="1" parent="x6IBYftdq4sRMW-oSaji-28">
          <mxGeometry y="26" width="240" height="30" as="geometry" />
        </mxCell>
        <mxCell id="x6IBYftdq4sRMW-oSaji-30" value="first_name VARCHAR(50), NOT NULL" style="text;strokeColor=none;fillColor=none;spacingLeft=4;spacingRight=4;overflow=hidden;rotatable=0;points=[[0,0.5],[1,0.5]];portConstraint=eastwest;fontSize=12;whiteSpace=wrap;html=1;" vertex="1" parent="x6IBYftdq4sRMW-oSaji-28">
          <mxGeometry y="56" width="240" height="30" as="geometry" />
        </mxCell>
        <mxCell id="x6IBYftdq4sRMW-oSaji-31" value="last_name VARCHAR(50), NOT NULL" style="text;strokeColor=none;fillColor=none;spacingLeft=4;spacingRight=4;overflow=hidden;rotatable=0;points=[[0,0.5],[1,0.5]];portConstraint=eastwest;fontSize=12;whiteSpace=wrap;html=1;" vertex="1" parent="x6IBYftdq4sRMW-oSaji-28">
          <mxGeometry y="86" width="240" height="30" as="geometry" />
        </mxCell>
        <mxCell id="x6IBYftdq4sRMW-oSaji-33" value="email VARCHAR(255), NOT NULL" style="text;strokeColor=none;fillColor=none;spacingLeft=4;spacingRight=4;overflow=hidden;rotatable=0;points=[[0,0.5],[1,0.5]];portConstraint=eastwest;fontSize=12;whiteSpace=wrap;html=1;" vertex="1" parent="x6IBYftdq4sRMW-oSaji-28">
          <mxGeometry y="116" width="240" height="30" as="geometry" />
        </mxCell>
        <mxCell id="x6IBYftdq4sRMW-oSaji-97" value="phone VARCHAR(20)" style="text;strokeColor=none;fillColor=none;spacingLeft=4;spacingRight=4;overflow=hidden;rotatable=0;points=[[0,0.5],[1,0.5]];portConstraint=eastwest;fontSize=12;whiteSpace=wrap;html=1;" vertex="1" parent="x6IBYftdq4sRMW-oSaji-28">
          <mxGeometry y="146" width="240" height="30" as="geometry" />
        </mxCell>
        <mxCell id="x6IBYftdq4sRMW-oSaji-98" value="registration_date DATETIME DEFAULT CURRENT_TIMESTAMP" style="text;strokeColor=none;fillColor=none;spacingLeft=4;spacingRight=4;overflow=hidden;rotatable=0;points=[[0,0.5],[1,0.5]];portConstraint=eastwest;fontSize=12;whiteSpace=wrap;html=1;" vertex="1" parent="x6IBYftdq4sRMW-oSaji-28">
          <mxGeometry y="176" width="240" height="44" as="geometry" />
        </mxCell>
        <mxCell id="x6IBYftdq4sRMW-oSaji-34" value="cust_order" style="swimlane;fontStyle=0;childLayout=stackLayout;horizontal=1;startSize=26;horizontalStack=0;resizeParent=1;resizeParentMax=0;resizeLast=0;collapsible=1;marginBottom=0;align=center;fontSize=14;" vertex="1" parent="1">
          <mxGeometry x="400" y="800" width="240" height="250" as="geometry">
            <mxRectangle x="40" y="800" width="110" height="30" as="alternateBounds" />
          </mxGeometry>
        </mxCell>
        <mxCell id="x6IBYftdq4sRMW-oSaji-35" value="order_id INT PK" style="text;strokeColor=none;fillColor=none;spacingLeft=4;spacingRight=4;overflow=hidden;rotatable=0;points=[[0,0.5],[1,0.5]];portConstraint=eastwest;fontSize=12;whiteSpace=wrap;html=1;" vertex="1" parent="x6IBYftdq4sRMW-oSaji-34">
          <mxGeometry y="26" width="240" height="30" as="geometry" />
        </mxCell>
        <mxCell id="x6IBYftdq4sRMW-oSaji-36" value="customer_id INT FK, NOT NULL" style="text;strokeColor=none;fillColor=none;spacingLeft=4;spacingRight=4;overflow=hidden;rotatable=0;points=[[0,0.5],[1,0.5]];portConstraint=eastwest;fontSize=12;whiteSpace=wrap;html=1;" vertex="1" parent="x6IBYftdq4sRMW-oSaji-34">
          <mxGeometry y="56" width="240" height="30" as="geometry" />
        </mxCell>
        <mxCell id="x6IBYftdq4sRMW-oSaji-37" value="order_date DATE DEFAULT CURRENT_TIMESTAMP" style="text;strokeColor=none;fillColor=none;spacingLeft=4;spacingRight=4;overflow=hidden;rotatable=0;points=[[0,0.5],[1,0.5]];portConstraint=eastwest;fontSize=12;whiteSpace=wrap;html=1;" vertex="1" parent="x6IBYftdq4sRMW-oSaji-34">
          <mxGeometry y="86" width="240" height="44" as="geometry" />
        </mxCell>
        <mxCell id="x6IBYftdq4sRMW-oSaji-101" value="shipping_address_id&amp;nbsp; INT FK, NOT NULL" style="text;strokeColor=none;fillColor=none;spacingLeft=4;spacingRight=4;overflow=hidden;rotatable=0;points=[[0,0.5],[1,0.5]];portConstraint=eastwest;fontSize=12;whiteSpace=wrap;html=1;" vertex="1" parent="x6IBYftdq4sRMW-oSaji-34">
          <mxGeometry y="130" width="240" height="30" as="geometry" />
        </mxCell>
        <mxCell id="x6IBYftdq4sRMW-oSaji-38" value="shipping_method_id INT FK, NOT NULL" style="text;strokeColor=none;fillColor=none;spacingLeft=4;spacingRight=4;overflow=hidden;rotatable=0;points=[[0,0.5],[1,0.5]];portConstraint=eastwest;fontSize=12;whiteSpace=wrap;html=1;" vertex="1" parent="x6IBYftdq4sRMW-oSaji-34">
          <mxGeometry y="160" width="240" height="30" as="geometry" />
        </mxCell>
        <mxCell id="x6IBYftdq4sRMW-oSaji-39" value="orders-status_id INT FK, NOT NULL" style="text;strokeColor=none;fillColor=none;spacingLeft=4;spacingRight=4;overflow=hidden;rotatable=0;points=[[0,0.5],[1,0.5]];portConstraint=eastwest;fontSize=12;whiteSpace=wrap;html=1;" vertex="1" parent="x6IBYftdq4sRMW-oSaji-34">
          <mxGeometry y="190" width="240" height="30" as="geometry" />
        </mxCell>
        <mxCell id="x6IBYftdq4sRMW-oSaji-103" value="order_total DECIMAL(!0,2), NOT NULL" style="text;strokeColor=none;fillColor=none;spacingLeft=4;spacingRight=4;overflow=hidden;rotatable=0;points=[[0,0.5],[1,0.5]];portConstraint=eastwest;fontSize=12;whiteSpace=wrap;html=1;" vertex="1" parent="x6IBYftdq4sRMW-oSaji-34">
          <mxGeometry y="220" width="240" height="30" as="geometry" />
        </mxCell>
        <mxCell id="x6IBYftdq4sRMW-oSaji-40" value="publisher" style="swimlane;fontStyle=0;childLayout=stackLayout;horizontal=1;startSize=26;horizontalStack=0;resizeParent=1;resizeParentMax=0;resizeLast=0;collapsible=1;marginBottom=0;align=center;fontSize=14;" vertex="1" parent="1">
          <mxGeometry x="440" y="40" width="240" height="160" as="geometry" />
        </mxCell>
        <mxCell id="x6IBYftdq4sRMW-oSaji-41" value="publisher_id INT PK" style="text;strokeColor=none;fillColor=none;spacingLeft=4;spacingRight=4;overflow=hidden;rotatable=0;points=[[0,0.5],[1,0.5]];portConstraint=eastwest;fontSize=12;whiteSpace=wrap;html=1;" vertex="1" parent="x6IBYftdq4sRMW-oSaji-40">
          <mxGeometry y="26" width="240" height="30" as="geometry" />
        </mxCell>
        <mxCell id="x6IBYftdq4sRMW-oSaji-42" value="publisher_name VARCHAR(255), NOT NULL" style="text;strokeColor=none;fillColor=none;spacingLeft=4;spacingRight=4;overflow=hidden;rotatable=0;points=[[0,0.5],[1,0.5]];portConstraint=eastwest;fontSize=12;whiteSpace=wrap;html=1;" vertex="1" parent="x6IBYftdq4sRMW-oSaji-40">
          <mxGeometry y="56" width="240" height="44" as="geometry" />
        </mxCell>
        <mxCell id="x6IBYftdq4sRMW-oSaji-91" value="publisher_email VARCHAR(100)" style="text;strokeColor=none;fillColor=none;spacingLeft=4;spacingRight=4;overflow=hidden;rotatable=0;points=[[0,0.5],[1,0.5]];portConstraint=eastwest;fontSize=12;whiteSpace=wrap;html=1;" vertex="1" parent="x6IBYftdq4sRMW-oSaji-40">
          <mxGeometry y="100" width="240" height="30" as="geometry" />
        </mxCell>
        <mxCell id="x6IBYftdq4sRMW-oSaji-92" value="publisher_phone VARCHAR(20)" style="text;strokeColor=none;fillColor=none;spacingLeft=4;spacingRight=4;overflow=hidden;rotatable=0;points=[[0,0.5],[1,0.5]];portConstraint=eastwest;fontSize=12;whiteSpace=wrap;html=1;" vertex="1" parent="x6IBYftdq4sRMW-oSaji-40">
          <mxGeometry y="130" width="240" height="30" as="geometry" />
        </mxCell>
        <mxCell id="x6IBYftdq4sRMW-oSaji-44" value="book_author" style="swimlane;fontStyle=0;childLayout=stackLayout;horizontal=1;startSize=26;horizontalStack=0;resizeParent=1;resizeParentMax=0;resizeLast=0;collapsible=1;marginBottom=0;align=center;fontSize=14;" vertex="1" parent="1">
          <mxGeometry x="440" y="320" width="240" height="86" as="geometry" />
        </mxCell>
        <mxCell id="x6IBYftdq4sRMW-oSaji-45" value="book_id INT PK, FK" style="text;strokeColor=none;fillColor=none;spacingLeft=4;spacingRight=4;overflow=hidden;rotatable=0;points=[[0,0.5],[1,0.5]];portConstraint=eastwest;fontSize=12;whiteSpace=wrap;html=1;" vertex="1" parent="x6IBYftdq4sRMW-oSaji-44">
          <mxGeometry y="26" width="240" height="30" as="geometry" />
        </mxCell>
        <mxCell id="x6IBYftdq4sRMW-oSaji-46" value="author_id INT PK, FK" style="text;strokeColor=none;fillColor=none;spacingLeft=4;spacingRight=4;overflow=hidden;rotatable=0;points=[[0,0.5],[1,0.5]];portConstraint=eastwest;fontSize=12;whiteSpace=wrap;html=1;" vertex="1" parent="x6IBYftdq4sRMW-oSaji-44">
          <mxGeometry y="56" width="240" height="30" as="geometry" />
        </mxCell>
        <mxCell id="x6IBYftdq4sRMW-oSaji-48" value="book_language" style="swimlane;fontStyle=0;childLayout=stackLayout;horizontal=1;startSize=26;horizontalStack=0;resizeParent=1;resizeParentMax=0;resizeLast=0;collapsible=1;marginBottom=0;align=center;fontSize=14;" vertex="1" parent="1">
          <mxGeometry x="437.5" y="560" width="245" height="120" as="geometry" />
        </mxCell>
        <mxCell id="x6IBYftdq4sRMW-oSaji-49" value="language_id INT PK" style="text;strokeColor=none;fillColor=none;spacingLeft=4;spacingRight=4;overflow=hidden;rotatable=0;points=[[0,0.5],[1,0.5]];portConstraint=eastwest;fontSize=12;whiteSpace=wrap;html=1;" vertex="1" parent="x6IBYftdq4sRMW-oSaji-48">
          <mxGeometry y="26" width="245" height="30" as="geometry" />
        </mxCell>
        <mxCell id="x6IBYftdq4sRMW-oSaji-50" value="language_name VARCHAR(50), NOT NULL" style="text;strokeColor=none;fillColor=none;spacingLeft=4;spacingRight=4;overflow=hidden;rotatable=0;points=[[0,0.5],[1,0.5]];portConstraint=eastwest;fontSize=12;whiteSpace=wrap;html=1;" vertex="1" parent="x6IBYftdq4sRMW-oSaji-48">
          <mxGeometry y="56" width="245" height="34" as="geometry" />
        </mxCell>
        <mxCell id="x6IBYftdq4sRMW-oSaji-93" value="language_code VARCHAR(5), NOT NULL" style="text;strokeColor=none;fillColor=none;spacingLeft=4;spacingRight=4;overflow=hidden;rotatable=0;points=[[0,0.5],[1,0.5]];portConstraint=eastwest;fontSize=12;whiteSpace=wrap;html=1;" vertex="1" parent="x6IBYftdq4sRMW-oSaji-48">
          <mxGeometry y="90" width="245" height="30" as="geometry" />
        </mxCell>
        <mxCell id="x6IBYftdq4sRMW-oSaji-52" value="order_line" style="swimlane;fontStyle=0;childLayout=stackLayout;horizontal=1;startSize=26;horizontalStack=0;resizeParent=1;resizeParentMax=0;resizeLast=0;collapsible=1;marginBottom=0;align=center;fontSize=14;" vertex="1" parent="1">
          <mxGeometry x="50" y="1130" width="245" height="176" as="geometry" />
        </mxCell>
        <mxCell id="x6IBYftdq4sRMW-oSaji-104" value="order_line_id INT PK" style="text;strokeColor=none;fillColor=none;spacingLeft=4;spacingRight=4;overflow=hidden;rotatable=0;points=[[0,0.5],[1,0.5]];portConstraint=eastwest;fontSize=12;whiteSpace=wrap;html=1;" vertex="1" parent="x6IBYftdq4sRMW-oSaji-52">
          <mxGeometry y="26" width="245" height="30" as="geometry" />
        </mxCell>
        <mxCell id="x6IBYftdq4sRMW-oSaji-53" value="order_id INT FK, NOT NULL" style="text;strokeColor=none;fillColor=none;spacingLeft=4;spacingRight=4;overflow=hidden;rotatable=0;points=[[0,0.5],[1,0.5]];portConstraint=eastwest;fontSize=12;whiteSpace=wrap;html=1;" vertex="1" parent="x6IBYftdq4sRMW-oSaji-52">
          <mxGeometry y="56" width="245" height="30" as="geometry" />
        </mxCell>
        <mxCell id="x6IBYftdq4sRMW-oSaji-55" value="book_id INT FK, NOT NULL" style="text;strokeColor=none;fillColor=none;spacingLeft=4;spacingRight=4;overflow=hidden;rotatable=0;points=[[0,0.5],[1,0.5]];portConstraint=eastwest;fontSize=12;whiteSpace=wrap;html=1;" vertex="1" parent="x6IBYftdq4sRMW-oSaji-52">
          <mxGeometry y="86" width="245" height="30" as="geometry" />
        </mxCell>
        <mxCell id="x6IBYftdq4sRMW-oSaji-105" value="quantity INT, NOT NULL" style="text;strokeColor=none;fillColor=none;spacingLeft=4;spacingRight=4;overflow=hidden;rotatable=0;points=[[0,0.5],[1,0.5]];portConstraint=eastwest;fontSize=12;whiteSpace=wrap;html=1;" vertex="1" parent="x6IBYftdq4sRMW-oSaji-52">
          <mxGeometry y="116" width="245" height="30" as="geometry" />
        </mxCell>
        <mxCell id="x6IBYftdq4sRMW-oSaji-106" value="price DECIMAL(10,2), NOT NULL" style="text;strokeColor=none;fillColor=none;spacingLeft=4;spacingRight=4;overflow=hidden;rotatable=0;points=[[0,0.5],[1,0.5]];portConstraint=eastwest;fontSize=12;whiteSpace=wrap;html=1;" vertex="1" parent="x6IBYftdq4sRMW-oSaji-52">
          <mxGeometry y="146" width="245" height="30" as="geometry" />
        </mxCell>
        <mxCell id="x6IBYftdq4sRMW-oSaji-56" value="customer_address" style="swimlane;fontStyle=0;childLayout=stackLayout;horizontal=1;startSize=26;horizontalStack=0;resizeParent=1;resizeParentMax=0;resizeLast=0;collapsible=1;marginBottom=0;align=center;fontSize=14;" vertex="1" parent="1">
          <mxGeometry x="800" y="717" width="240" height="116" as="geometry" />
        </mxCell>
        <mxCell id="x6IBYftdq4sRMW-oSaji-57" value="customer_id INT PK, FK" style="text;strokeColor=none;fillColor=none;spacingLeft=4;spacingRight=4;overflow=hidden;rotatable=0;points=[[0,0.5],[1,0.5]];portConstraint=eastwest;fontSize=12;whiteSpace=wrap;html=1;" vertex="1" parent="x6IBYftdq4sRMW-oSaji-56">
          <mxGeometry y="26" width="240" height="30" as="geometry" />
        </mxCell>
        <mxCell id="x6IBYftdq4sRMW-oSaji-58" value="address_id INT PK, FK" style="text;strokeColor=none;fillColor=none;spacingLeft=4;spacingRight=4;overflow=hidden;rotatable=0;points=[[0,0.5],[1,0.5]];portConstraint=eastwest;fontSize=12;whiteSpace=wrap;html=1;" vertex="1" parent="x6IBYftdq4sRMW-oSaji-56">
          <mxGeometry y="56" width="240" height="30" as="geometry" />
        </mxCell>
        <mxCell id="x6IBYftdq4sRMW-oSaji-59" value="status_id INT FK" style="text;strokeColor=none;fillColor=none;spacingLeft=4;spacingRight=4;overflow=hidden;rotatable=0;points=[[0,0.5],[1,0.5]];portConstraint=eastwest;fontSize=12;whiteSpace=wrap;html=1;" vertex="1" parent="x6IBYftdq4sRMW-oSaji-56">
          <mxGeometry y="86" width="240" height="30" as="geometry" />
        </mxCell>
        <mxCell id="x6IBYftdq4sRMW-oSaji-60" value="address_status" style="swimlane;fontStyle=0;childLayout=stackLayout;horizontal=1;startSize=26;horizontalStack=0;resizeParent=1;resizeParentMax=0;resizeLast=0;collapsible=1;marginBottom=0;align=center;fontSize=14;" vertex="1" parent="1">
          <mxGeometry x="1060" y="990" width="240" height="90" as="geometry" />
        </mxCell>
        <mxCell id="x6IBYftdq4sRMW-oSaji-61" value="status_id INT PK" style="text;strokeColor=none;fillColor=none;spacingLeft=4;spacingRight=4;overflow=hidden;rotatable=0;points=[[0,0.5],[1,0.5]];portConstraint=eastwest;fontSize=12;whiteSpace=wrap;html=1;" vertex="1" parent="x6IBYftdq4sRMW-oSaji-60">
          <mxGeometry y="26" width="240" height="30" as="geometry" />
        </mxCell>
        <mxCell id="x6IBYftdq4sRMW-oSaji-62" value="status_name VARCHAR(30), NOT NULL" style="text;strokeColor=none;fillColor=none;spacingLeft=4;spacingRight=4;overflow=hidden;rotatable=0;points=[[0,0.5],[1,0.5]];portConstraint=eastwest;fontSize=12;whiteSpace=wrap;html=1;" vertex="1" parent="x6IBYftdq4sRMW-oSaji-60">
          <mxGeometry y="56" width="240" height="34" as="geometry" />
        </mxCell>
        <mxCell id="x6IBYftdq4sRMW-oSaji-64" value="order_status" style="swimlane;fontStyle=0;childLayout=stackLayout;horizontal=1;startSize=26;horizontalStack=0;resizeParent=1;resizeParentMax=0;resizeLast=0;collapsible=1;marginBottom=0;align=center;fontSize=14;" vertex="1" parent="1">
          <mxGeometry x="1240" y="440" width="240" height="90" as="geometry" />
        </mxCell>
        <mxCell id="x6IBYftdq4sRMW-oSaji-127" value="order_status_id INT PK" style="text;strokeColor=none;fillColor=none;spacingLeft=4;spacingRight=4;overflow=hidden;rotatable=0;points=[[0,0.5],[1,0.5]];portConstraint=eastwest;fontSize=12;whiteSpace=wrap;html=1;" vertex="1" parent="x6IBYftdq4sRMW-oSaji-64">
          <mxGeometry y="26" width="240" height="30" as="geometry" />
        </mxCell>
        <mxCell id="x6IBYftdq4sRMW-oSaji-66" value="status_name VARCHAR(50), NOT NULL" style="text;strokeColor=none;fillColor=none;spacingLeft=4;spacingRight=4;overflow=hidden;rotatable=0;points=[[0,0.5],[1,0.5]];portConstraint=eastwest;fontSize=12;whiteSpace=wrap;html=1;" vertex="1" parent="x6IBYftdq4sRMW-oSaji-64">
          <mxGeometry y="56" width="240" height="34" as="geometry" />
        </mxCell>
        <mxCell id="x6IBYftdq4sRMW-oSaji-72" value="shipping_method" style="swimlane;fontStyle=0;childLayout=stackLayout;horizontal=1;startSize=26;horizontalStack=0;resizeParent=1;resizeParentMax=0;resizeLast=0;collapsible=1;marginBottom=0;align=center;fontSize=14;" vertex="1" parent="1">
          <mxGeometry x="840" y="1110" width="240" height="160" as="geometry" />
        </mxCell>
        <mxCell id="x6IBYftdq4sRMW-oSaji-73" value="shipping_method_id INT PK" style="text;strokeColor=none;fillColor=none;spacingLeft=4;spacingRight=4;overflow=hidden;rotatable=0;points=[[0,0.5],[1,0.5]];portConstraint=eastwest;fontSize=12;whiteSpace=wrap;html=1;" vertex="1" parent="x6IBYftdq4sRMW-oSaji-72">
          <mxGeometry y="26" width="240" height="30" as="geometry" />
        </mxCell>
        <mxCell id="x6IBYftdq4sRMW-oSaji-74" value="method_name VARCHAR(100), NOT NULL" style="text;strokeColor=none;fillColor=none;spacingLeft=4;spacingRight=4;overflow=hidden;rotatable=0;points=[[0,0.5],[1,0.5]];portConstraint=eastwest;fontSize=12;whiteSpace=wrap;html=1;" vertex="1" parent="x6IBYftdq4sRMW-oSaji-72">
          <mxGeometry y="56" width="240" height="44" as="geometry" />
        </mxCell>
        <mxCell id="x6IBYftdq4sRMW-oSaji-99" value="cost DECIMAL(10,2), NOT NULL" style="text;strokeColor=none;fillColor=none;spacingLeft=4;spacingRight=4;overflow=hidden;rotatable=0;points=[[0,0.5],[1,0.5]];portConstraint=eastwest;fontSize=12;whiteSpace=wrap;html=1;" vertex="1" parent="x6IBYftdq4sRMW-oSaji-72">
          <mxGeometry y="100" width="240" height="30" as="geometry" />
        </mxCell>
        <mxCell id="x6IBYftdq4sRMW-oSaji-100" value="estimated_days INT" style="text;strokeColor=none;fillColor=none;spacingLeft=4;spacingRight=4;overflow=hidden;rotatable=0;points=[[0,0.5],[1,0.5]];portConstraint=eastwest;fontSize=12;whiteSpace=wrap;html=1;" vertex="1" parent="x6IBYftdq4sRMW-oSaji-72">
          <mxGeometry y="130" width="240" height="30" as="geometry" />
        </mxCell>
        <mxCell id="x6IBYftdq4sRMW-oSaji-76" value="country" style="swimlane;fontStyle=0;childLayout=stackLayout;horizontal=1;startSize=26;horizontalStack=0;resizeParent=1;resizeParentMax=0;resizeLast=0;collapsible=1;marginBottom=0;align=center;fontSize=14;" vertex="1" parent="1">
          <mxGeometry x="820" y="240" width="240" height="100" as="geometry" />
        </mxCell>
        <mxCell id="x6IBYftdq4sRMW-oSaji-77" value="country_id INT PK" style="text;strokeColor=none;fillColor=none;spacingLeft=4;spacingRight=4;overflow=hidden;rotatable=0;points=[[0,0.5],[1,0.5]];portConstraint=eastwest;fontSize=12;whiteSpace=wrap;html=1;" vertex="1" parent="x6IBYftdq4sRMW-oSaji-76">
          <mxGeometry y="26" width="240" height="30" as="geometry" />
        </mxCell>
        <mxCell id="x6IBYftdq4sRMW-oSaji-78" value="country_name VARCHAR(100), NOT NULL" style="text;strokeColor=none;fillColor=none;spacingLeft=4;spacingRight=4;overflow=hidden;rotatable=0;points=[[0,0.5],[1,0.5]];portConstraint=eastwest;fontSize=12;whiteSpace=wrap;html=1;" vertex="1" parent="x6IBYftdq4sRMW-oSaji-76">
          <mxGeometry y="56" width="240" height="44" as="geometry" />
        </mxCell>
        <mxCell id="x6IBYftdq4sRMW-oSaji-80" value="address" style="swimlane;fontStyle=0;childLayout=stackLayout;horizontal=1;startSize=26;horizontalStack=0;resizeParent=1;resizeParentMax=0;resizeLast=0;collapsible=1;marginBottom=0;align=center;fontSize=14;" vertex="1" parent="1">
          <mxGeometry x="840" y="440" width="240" height="180" as="geometry" />
        </mxCell>
        <mxCell id="x6IBYftdq4sRMW-oSaji-81" value="address_id INT PK" style="text;strokeColor=none;fillColor=none;spacingLeft=4;spacingRight=4;overflow=hidden;rotatable=0;points=[[0,0.5],[1,0.5]];portConstraint=eastwest;fontSize=12;whiteSpace=wrap;html=1;" vertex="1" parent="x6IBYftdq4sRMW-oSaji-80">
          <mxGeometry y="26" width="240" height="30" as="geometry" />
        </mxCell>
        <mxCell id="x6IBYftdq4sRMW-oSaji-82" value="city VARCHAR(100), NOT NULL" style="text;strokeColor=none;fillColor=none;spacingLeft=4;spacingRight=4;overflow=hidden;rotatable=0;points=[[0,0.5],[1,0.5]];portConstraint=eastwest;fontSize=12;whiteSpace=wrap;html=1;" vertex="1" parent="x6IBYftdq4sRMW-oSaji-80">
          <mxGeometry y="56" width="240" height="30" as="geometry" />
        </mxCell>
        <mxCell id="x6IBYftdq4sRMW-oSaji-83" value="state VARCHAR(100)" style="text;strokeColor=none;fillColor=none;spacingLeft=4;spacingRight=4;overflow=hidden;rotatable=0;points=[[0,0.5],[1,0.5]];portConstraint=eastwest;fontSize=12;whiteSpace=wrap;html=1;" vertex="1" parent="x6IBYftdq4sRMW-oSaji-80">
          <mxGeometry y="86" width="240" height="30" as="geometry" />
        </mxCell>
        <mxCell id="x6IBYftdq4sRMW-oSaji-89" value="postal_code VARCHAR(20), NOT NULL" style="text;strokeColor=none;fillColor=none;spacingLeft=4;spacingRight=4;overflow=hidden;rotatable=0;points=[[0,0.5],[1,0.5]];portConstraint=eastwest;fontSize=12;whiteSpace=wrap;html=1;" vertex="1" parent="x6IBYftdq4sRMW-oSaji-80">
          <mxGeometry y="116" width="240" height="34" as="geometry" />
        </mxCell>
        <mxCell id="x6IBYftdq4sRMW-oSaji-90" value="country_id&amp;nbsp; INT FK, NOT NULL" style="text;strokeColor=none;fillColor=none;spacingLeft=4;spacingRight=4;overflow=hidden;rotatable=0;points=[[0,0.5],[1,0.5]];portConstraint=eastwest;fontSize=12;whiteSpace=wrap;html=1;" vertex="1" parent="x6IBYftdq4sRMW-oSaji-80">
          <mxGeometry y="150" width="240" height="30" as="geometry" />
        </mxCell>
        <mxCell id="x6IBYftdq4sRMW-oSaji-84" value="order_history" style="swimlane;fontStyle=0;childLayout=stackLayout;horizontal=1;startSize=26;horizontalStack=0;resizeParent=1;resizeParentMax=0;resizeLast=0;collapsible=1;marginBottom=0;align=center;fontSize=14;" vertex="1" parent="1">
          <mxGeometry x="1240" y="680" width="240" height="190" as="geometry" />
        </mxCell>
        <mxCell id="x6IBYftdq4sRMW-oSaji-85" value="history_id INT PK" style="text;strokeColor=none;fillColor=none;spacingLeft=4;spacingRight=4;overflow=hidden;rotatable=0;points=[[0,0.5],[1,0.5]];portConstraint=eastwest;fontSize=12;whiteSpace=wrap;html=1;" vertex="1" parent="x6IBYftdq4sRMW-oSaji-84">
          <mxGeometry y="26" width="240" height="30" as="geometry" />
        </mxCell>
        <mxCell id="x6IBYftdq4sRMW-oSaji-86" value="order_id INT FK, NOT NULL" style="text;strokeColor=none;fillColor=none;spacingLeft=4;spacingRight=4;overflow=hidden;rotatable=0;points=[[0,0.5],[1,0.5]];portConstraint=eastwest;fontSize=12;whiteSpace=wrap;html=1;" vertex="1" parent="x6IBYftdq4sRMW-oSaji-84">
          <mxGeometry y="56" width="240" height="30" as="geometry" />
        </mxCell>
        <mxCell id="x6IBYftdq4sRMW-oSaji-87" value="order_status_id INT FK, NOT NULL" style="text;strokeColor=none;fillColor=none;spacingLeft=4;spacingRight=4;overflow=hidden;rotatable=0;points=[[0,0.5],[1,0.5]];portConstraint=eastwest;fontSize=12;whiteSpace=wrap;html=1;" vertex="1" parent="x6IBYftdq4sRMW-oSaji-84">
          <mxGeometry y="86" width="240" height="30" as="geometry" />
        </mxCell>
        <mxCell id="x6IBYftdq4sRMW-oSaji-88" value="status_date DATETIME DEFAULT CURRENT_TIMESTAMP" style="text;strokeColor=none;fillColor=none;spacingLeft=4;spacingRight=4;overflow=hidden;rotatable=0;points=[[0,0.5],[1,0.5]];portConstraint=eastwest;fontSize=12;whiteSpace=wrap;html=1;" vertex="1" parent="x6IBYftdq4sRMW-oSaji-84">
          <mxGeometry y="116" width="240" height="44" as="geometry" />
        </mxCell>
        <mxCell id="x6IBYftdq4sRMW-oSaji-107" value="comments TEXT" style="text;strokeColor=none;fillColor=none;spacingLeft=4;spacingRight=4;overflow=hidden;rotatable=0;points=[[0,0.5],[1,0.5]];portConstraint=eastwest;fontSize=12;whiteSpace=wrap;html=1;" vertex="1" parent="x6IBYftdq4sRMW-oSaji-84">
          <mxGeometry y="160" width="240" height="30" as="geometry" />
        </mxCell>
        <mxCell id="x6IBYftdq4sRMW-oSaji-109" value="" style="endArrow=classic;html=1;rounded=0;exitX=1;exitY=0.5;exitDx=0;exitDy=0;entryX=0;entryY=0.5;entryDx=0;entryDy=0;" edge="1" parent="1" source="x6IBYftdq4sRMW-oSaji-23" target="x6IBYftdq4sRMW-oSaji-41">
          <mxGeometry width="50" height="50" relative="1" as="geometry">
            <mxPoint x="280" y="155" as="sourcePoint" />
            <mxPoint x="440" y="155" as="targetPoint" />
          </mxGeometry>
        </mxCell>
        <mxCell id="x6IBYftdq4sRMW-oSaji-110" value="" style="endArrow=classic;html=1;rounded=0;exitX=1;exitY=0.5;exitDx=0;exitDy=0;entryX=0;entryY=0.5;entryDx=0;entryDy=0;" edge="1" parent="1" source="x6IBYftdq4sRMW-oSaji-21" target="x6IBYftdq4sRMW-oSaji-49">
          <mxGeometry width="50" height="50" relative="1" as="geometry">
            <mxPoint x="430" y="380" as="sourcePoint" />
            <mxPoint x="480" y="330" as="targetPoint" />
          </mxGeometry>
        </mxCell>
        <mxCell id="x6IBYftdq4sRMW-oSaji-111" value="" style="endArrow=classic;html=1;rounded=0;exitX=1;exitY=0.5;exitDx=0;exitDy=0;entryX=0;entryY=0.5;entryDx=0;entryDy=0;" edge="1" parent="1" source="x6IBYftdq4sRMW-oSaji-16" target="x6IBYftdq4sRMW-oSaji-45">
          <mxGeometry width="50" height="50" relative="1" as="geometry">
            <mxPoint x="430" y="380" as="sourcePoint" />
            <mxPoint x="480" y="330" as="targetPoint" />
          </mxGeometry>
        </mxCell>
        <mxCell id="x6IBYftdq4sRMW-oSaji-112" value="" style="endArrow=classic;html=1;rounded=0;exitX=1;exitY=0.5;exitDx=0;exitDy=0;entryX=0;entryY=0.5;entryDx=0;entryDy=0;" edge="1" parent="1" source="x6IBYftdq4sRMW-oSaji-25" target="x6IBYftdq4sRMW-oSaji-46">
          <mxGeometry width="50" height="50" relative="1" as="geometry">
            <mxPoint x="430" y="380" as="sourcePoint" />
            <mxPoint x="480" y="330" as="targetPoint" />
          </mxGeometry>
        </mxCell>
        <mxCell id="x6IBYftdq4sRMW-oSaji-116" value="" style="endArrow=classic;html=1;rounded=0;exitX=1;exitY=0.5;exitDx=0;exitDy=0;entryX=0;entryY=0.5;entryDx=0;entryDy=0;" edge="1" parent="1" source="x6IBYftdq4sRMW-oSaji-29" target="x6IBYftdq4sRMW-oSaji-57">
          <mxGeometry width="50" height="50" relative="1" as="geometry">
            <mxPoint x="430" y="760" as="sourcePoint" />
            <mxPoint x="480" y="710" as="targetPoint" />
            <Array as="points">
              <mxPoint x="420" y="758" />
            </Array>
          </mxGeometry>
        </mxCell>
        <mxCell id="x6IBYftdq4sRMW-oSaji-117" value="" style="endArrow=classic;html=1;rounded=0;exitX=1;exitY=0.5;exitDx=0;exitDy=0;entryX=0;entryY=0.5;entryDx=0;entryDy=0;" edge="1" parent="1" source="x6IBYftdq4sRMW-oSaji-38" target="x6IBYftdq4sRMW-oSaji-73">
          <mxGeometry width="50" height="50" relative="1" as="geometry">
            <mxPoint x="470" y="1130" as="sourcePoint" />
            <mxPoint x="520" y="1080" as="targetPoint" />
          </mxGeometry>
        </mxCell>
        <mxCell id="x6IBYftdq4sRMW-oSaji-118" style="edgeStyle=orthogonalEdgeStyle;rounded=0;orthogonalLoop=1;jettySize=auto;html=1;exitX=1;exitY=0.5;exitDx=0;exitDy=0;entryX=0;entryY=0.5;entryDx=0;entryDy=0;" edge="1" parent="1" source="x6IBYftdq4sRMW-oSaji-29" target="x6IBYftdq4sRMW-oSaji-36">
          <mxGeometry relative="1" as="geometry" />
        </mxCell>
        <mxCell id="x6IBYftdq4sRMW-oSaji-119" style="edgeStyle=orthogonalEdgeStyle;rounded=0;orthogonalLoop=1;jettySize=auto;html=1;exitX=1;exitY=0.5;exitDx=0;exitDy=0;entryX=0;entryY=0.5;entryDx=0;entryDy=0;" edge="1" parent="1" source="x6IBYftdq4sRMW-oSaji-39" target="x6IBYftdq4sRMW-oSaji-88">
          <mxGeometry relative="1" as="geometry">
            <Array as="points">
              <mxPoint x="720" y="1005" />
              <mxPoint x="720" y="880" />
              <mxPoint x="1190" y="880" />
              <mxPoint x="1190" y="818" />
            </Array>
          </mxGeometry>
        </mxCell>
        <mxCell id="x6IBYftdq4sRMW-oSaji-122" style="edgeStyle=orthogonalEdgeStyle;rounded=0;orthogonalLoop=1;jettySize=auto;html=1;exitX=1;exitY=0.5;exitDx=0;exitDy=0;entryX=1;entryY=0.5;entryDx=0;entryDy=0;" edge="1" parent="1" source="x6IBYftdq4sRMW-oSaji-45" target="x6IBYftdq4sRMW-oSaji-55">
          <mxGeometry relative="1" as="geometry" />
        </mxCell>
        <mxCell id="x6IBYftdq4sRMW-oSaji-123" style="edgeStyle=orthogonalEdgeStyle;rounded=0;orthogonalLoop=1;jettySize=auto;html=1;exitX=1;exitY=0.5;exitDx=0;exitDy=0;entryX=1;entryY=0.5;entryDx=0;entryDy=0;" edge="1" parent="1" source="x6IBYftdq4sRMW-oSaji-62" target="x6IBYftdq4sRMW-oSaji-66">
          <mxGeometry relative="1" as="geometry">
            <Array as="points">
              <mxPoint x="1540" y="1063" />
              <mxPoint x="1540" y="513" />
            </Array>
          </mxGeometry>
        </mxCell>
        <mxCell id="x6IBYftdq4sRMW-oSaji-124" style="edgeStyle=orthogonalEdgeStyle;rounded=0;orthogonalLoop=1;jettySize=auto;html=1;exitX=0;exitY=0.5;exitDx=0;exitDy=0;entryX=0;entryY=0.5;entryDx=0;entryDy=0;" edge="1" parent="1" source="x6IBYftdq4sRMW-oSaji-59" target="x6IBYftdq4sRMW-oSaji-61">
          <mxGeometry relative="1" as="geometry">
            <mxPoint x="1040" y="1030" as="targetPoint" />
            <Array as="points">
              <mxPoint x="780" y="818" />
              <mxPoint x="780" y="1030" />
              <mxPoint x="1040" y="1030" />
              <mxPoint x="1040" y="1031" />
            </Array>
          </mxGeometry>
        </mxCell>
        <mxCell id="x6IBYftdq4sRMW-oSaji-125" style="edgeStyle=orthogonalEdgeStyle;rounded=0;orthogonalLoop=1;jettySize=auto;html=1;exitX=0;exitY=0.5;exitDx=0;exitDy=0;entryX=0;entryY=0.5;entryDx=0;entryDy=0;" edge="1" parent="1" source="x6IBYftdq4sRMW-oSaji-81" target="x6IBYftdq4sRMW-oSaji-58">
          <mxGeometry relative="1" as="geometry" />
        </mxCell>
        <mxCell id="x6IBYftdq4sRMW-oSaji-126" style="edgeStyle=orthogonalEdgeStyle;rounded=0;orthogonalLoop=1;jettySize=auto;html=1;exitX=0;exitY=0.5;exitDx=0;exitDy=0;entryX=0;entryY=0.5;entryDx=0;entryDy=0;" edge="1" parent="1" source="x6IBYftdq4sRMW-oSaji-90" target="x6IBYftdq4sRMW-oSaji-77">
          <mxGeometry relative="1" as="geometry" />
        </mxCell>
        <mxCell id="x6IBYftdq4sRMW-oSaji-128" style="edgeStyle=orthogonalEdgeStyle;rounded=0;orthogonalLoop=1;jettySize=auto;html=1;exitX=0;exitY=0.5;exitDx=0;exitDy=0;entryX=0;entryY=0.5;entryDx=0;entryDy=0;" edge="1" parent="1" source="x6IBYftdq4sRMW-oSaji-127" target="x6IBYftdq4sRMW-oSaji-87">
          <mxGeometry relative="1" as="geometry" />
        </mxCell>
        <mxCell id="x6IBYftdq4sRMW-oSaji-130" style="edgeStyle=orthogonalEdgeStyle;rounded=0;orthogonalLoop=1;jettySize=auto;html=1;exitX=0;exitY=0.5;exitDx=0;exitDy=0;entryX=1;entryY=0.5;entryDx=0;entryDy=0;" edge="1" parent="1" source="x6IBYftdq4sRMW-oSaji-35" target="x6IBYftdq4sRMW-oSaji-104">
          <mxGeometry relative="1" as="geometry" />
        </mxCell>
      </root>
    </mxGraphModel>
  </diagram>
</mxfile>
